{
	"asset":{
		"generator":"Khronos glTF Blender I/O v4.0.44",
		"version":"2.0"
	},
	"extensionsUsed":[
		"KHR_texture_transform"
	],
	"extensionsRequired":[
		"KHR_texture_transform"
	],
	"scene":0,
	"scenes":[
		{
			"name":"Scene",
			"nodes":[
				5
			]
		}
	],
	"nodes":[
		{
			"mesh":0,
			"name":"Cube"
		},
		{
			"mesh":1,
			"name":"Cube.001"
		},
		{
			"mesh":2,
			"name":"Cube.002"
		},
		{
			"mesh":3,
			"name":"Cube.004",
			"translation":[
				0,
				0,
				-0.17306342720985413
			]
		},
		{
			"mesh":4,
			"name":"Cube.007"
		},
		{
			"children":[
				0,
				1,
				2,
				3,
				4
			],
			"name":"Bedroom nightstands",
			"translation":[
				-0.13677978515625,
				0,
				0.6169037818908691
			]
		}
	],
	"animations":[
		{
			"channels":[
				{
					"sampler":0,
					"target":{
						"node":3,
						"path":"translation"
					}
				}
			],
			"name":"Cube.004Action",
			"samplers":[
				{
					"input":24,
					"interpolation":"CUBICSPLINE",
					"output":25
				}
			]
		}
	],
	"materials":[
		{
			"doubleSided":true,
			"name":"Leather.002",
			"normalTexture":{
				"extensions":{
					"KHR_texture_transform":{
						"offset":[
							0,
							-9
						],
						"scale":[
							10,
							10
						]
					}
				},
				"index":0,
				"texCoord":1
			},
			"pbrMetallicRoughness":{
				"baseColorTexture":{
					"extensions":{
						"KHR_texture_transform":{
							"offset":[
								0,
								-9
							],
							"scale":[
								10,
								10
							]
						}
					},
					"index":1,
					"texCoord":1
				},
				"metallicFactor":0,
				"metallicRoughnessTexture":{
					"extensions":{
						"KHR_texture_transform":{
							"offset":[
								0,
								-9
							],
							"scale":[
								10,
								10
							]
						}
					},
					"index":2,
					"texCoord":1
				}
			}
		},
		{
			"doubleSided":true,
			"name":"Wood.005",
			"normalTexture":{
				"index":3,
				"texCoord":1
			},
			"pbrMetallicRoughness":{
				"baseColorTexture":{
					"index":4,
					"texCoord":1
				},
				"metallicFactor":0,
				"metallicRoughnessTexture":{
					"index":5,
					"texCoord":1
				}
			}
		},
		{
			"doubleSided":true,
			"name":"Wood.005",
			"normalTexture":{
				"index":3
			},
			"pbrMetallicRoughness":{
				"baseColorTexture":{
					"index":4
				},
				"metallicFactor":0,
				"metallicRoughnessTexture":{
					"index":5
				}
			}
		},
		{
			"doubleSided":true,
			"name":"Glass - Optimized.001",
			"pbrMetallicRoughness":{}
		}
	],
	"meshes":[
		{
			"name":"Cube.020",
			"primitives":[
				{
					"attributes":{
						"POSITION":0,
						"NORMAL":1,
						"TEXCOORD_0":2,
						"TEXCOORD_1":3
					},
					"indices":4,
					"material":0
				}
			]
		},
		{
			"name":"Cube.019",
			"primitives":[
				{
					"attributes":{
						"POSITION":5,
						"NORMAL":6,
						"TEXCOORD_0":7,
						"TEXCOORD_1":8
					},
					"indices":9,
					"material":1
				}
			]
		},
		{
			"name":"Cube.018",
			"primitives":[
				{
					"attributes":{
						"POSITION":10,
						"NORMAL":11,
						"TEXCOORD_0":12,
						"TEXCOORD_1":13
					},
					"indices":14,
					"material":1
				}
			]
		},
		{
			"name":"Cube.013",
			"primitives":[
				{
					"attributes":{
						"POSITION":15,
						"NORMAL":16,
						"TEXCOORD_0":17
					},
					"indices":18,
					"material":2
				}
			]
		},
		{
			"name":"Cube.009",
			"primitives":[
				{
					"attributes":{
						"POSITION":19,
						"NORMAL":20,
						"TEXCOORD_0":21,
						"TEXCOORD_1":22
					},
					"indices":23,
					"material":3
				}
			]
		}
	],
	"textures":[
		{
			"sampler":0,
			"source":0
		},
		{
			"sampler":0,
			"source":1
		},
		{
			"sampler":0,
			"source":2
		},
		{
			"sampler":0,
			"source":3
		},
		{
			"sampler":0,
			"source":4
		},
		{
			"sampler":0,
			"source":5
		}
	],
	"images":[
		{
			"mimeType":"image/jpeg",
			"name":"2K-Leather_23_Normal",
			"uri":"2K-Leather_23_Normal.jpg"
		},
		{
			"mimeType":"image/jpeg",
			"name":"2K-Leather_23_Base Color",
			"uri":"2K-Leather_23_Base%20Color.jpg"
		},
		{
			"mimeType":"image/png",
			"name":"2K-Leather_23_Roughness",
			"uri":"2K-Leather_23_Roughness.png"
		},
		{
			"mimeType":"image/jpeg",
			"name":"Wood053_2K_Normal",
			"uri":"Wood053_2K_Normal.jpg"
		},
		{
			"mimeType":"image/jpeg",
			"name":"Wood053_2K_Color",
			"uri":"Wood053_2K_Color.jpg"
		},
		{
			"mimeType":"image/png",
			"name":"Wood053_2K_Roughness",
			"uri":"Wood053_2K_Roughness.png"
		}
	],
	"accessors":[
		{
			"bufferView":0,
			"componentType":5126,
			"count":2843,
			"max":[
				0.2750193178653717,
				0.43999993801116943,
				0.1849999725818634
			],
			"min":[
				-0.2749805152416229,
				0,
				-0.1849999874830246
			],
			"type":"VEC3"
		},
		{
			"bufferView":1,
			"componentType":5126,
			"count":2843,
			"type":"VEC3"
		},
		{
			"bufferView":2,
			"componentType":5126,
			"count":2843,
			"type":"VEC2"
		},
		{
			"bufferView":3,
			"componentType":5126,
			"count":2843,
			"type":"VEC2"
		},
		{
			"bufferView":4,
			"componentType":5123,
			"count":9852,
			"type":"SCALAR"
		},
		{
			"bufferView":5,
			"componentType":5126,
			"count":254,
			"max":[
				0.2750193178653717,
				0.20999997854232788,
				0.10500001162290573
			],
			"min":[
				-0.2749805152416229,
				0.09999996423721313,
				-0.1849999725818634
			],
			"type":"VEC3"
		},
		{
			"bufferView":6,
			"componentType":5126,
			"count":254,
			"type":"VEC3"
		},
		{
			"bufferView":7,
			"componentType":5126,
			"count":254,
			"type":"VEC2"
		},
		{
			"bufferView":8,
			"componentType":5126,
			"count":254,
			"type":"VEC2"
		},
		{
			"bufferView":9,
			"componentType":5123,
			"count":714,
			"type":"SCALAR"
		},
		{
			"bufferView":10,
			"componentType":5126,
			"count":688,
			"max":[
				0.27501949667930603,
				0.2199999839067459,
				0.14499998092651367
			],
			"min":[
				-0.2749805748462677,
				0.20999997854232788,
				-0.1849999725818634
			],
			"type":"VEC3"
		},
		{
			"bufferView":11,
			"componentType":5126,
			"count":688,
			"type":"VEC3"
		},
		{
			"bufferView":12,
			"componentType":5126,
			"count":688,
			"type":"VEC2"
		},
		{
			"bufferView":13,
			"componentType":5126,
			"count":688,
			"type":"VEC2"
		},
		{
			"bufferView":14,
			"componentType":5123,
			"count":2526,
			"type":"SCALAR"
		},
		{
			"bufferView":15,
			"componentType":5126,
			"count":1151,
			"max":[
				0.25501933693885803,
				0.20999997854232788,
				0.3150469660758972
			],
			"min":[
				-0.2549804747104645,
				0.0899999737739563,
				-0.0049529969692230225
			],
			"type":"VEC3"
		},
		{
			"bufferView":16,
			"componentType":5126,
			"count":1151,
			"type":"VEC3"
		},
		{
			"bufferView":17,
			"componentType":5126,
			"count":1151,
			"type":"VEC2"
		},
		{
			"bufferView":18,
			"componentType":5123,
			"count":4212,
			"type":"SCALAR"
		},
		{
			"bufferView":19,
			"componentType":5126,
			"count":656,
			"max":[
				0.2550193965435028,
				0.3924999535083771,
				0.14249999821186066
			],
			"min":[
				-0.25498053431510925,
				0.38249996304512024,
				-0.1650000363588333
			],
			"type":"VEC3"
		},
		{
			"bufferView":20,
			"componentType":5126,
			"count":656,
			"type":"VEC3"
		},
		{
			"bufferView":21,
			"componentType":5126,
			"count":656,
			"type":"VEC2"
		},
		{
			"bufferView":22,
			"componentType":5126,
			"count":656,
			"type":"VEC2"
		},
		{
			"bufferView":23,
			"componentType":5123,
			"count":2148,
			"type":"SCALAR"
		},
		{
			"bufferView":24,
			"componentType":5126,
			"count":3,
			"max":[
				1.6666666666666667
			],
			"min":[
				0.041666666666666664
			],
			"type":"SCALAR"
		},
		{
			"bufferView":25,
			"componentType":5126,
			"count":9,
			"type":"VEC3"
		}
	],
	"bufferViews":[
		{
			"buffer":0,
			"byteLength":34116,
			"byteOffset":0,
			"target":34962
		},
		{
			"buffer":0,
			"byteLength":34116,
			"byteOffset":34116,
			"target":34962
		},
		{
			"buffer":0,
			"byteLength":22744,
			"byteOffset":68232,
			"target":34962
		},
		{
			"buffer":0,
			"byteLength":22744,
			"byteOffset":90976,
			"target":34962
		},
		{
			"buffer":0,
			"byteLength":19704,
			"byteOffset":113720,
			"target":34963
		},
		{
			"buffer":0,
			"byteLength":3048,
			"byteOffset":133424,
			"target":34962
		},
		{
			"buffer":0,
			"byteLength":3048,
			"byteOffset":136472,
			"target":34962
		},
		{
			"buffer":0,
			"byteLength":2032,
			"byteOffset":139520,
			"target":34962
		},
		{
			"buffer":0,
			"byteLength":2032,
			"byteOffset":141552,
			"target":34962
		},
		{
			"buffer":0,
			"byteLength":1428,
			"byteOffset":143584,
			"target":34963
		},
		{
			"buffer":0,
			"byteLength":8256,
			"byteOffset":145012,
			"target":34962
		},
		{
			"buffer":0,
			"byteLength":8256,
			"byteOffset":153268,
			"target":34962
		},
		{
			"buffer":0,
			"byteLength":5504,
			"byteOffset":161524,
			"target":34962
		},
		{
			"buffer":0,
			"byteLength":5504,
			"byteOffset":167028,
			"target":34962
		},
		{
			"buffer":0,
			"byteLength":5052,
			"byteOffset":172532,
			"target":34963
		},
		{
			"buffer":0,
			"byteLength":13812,
			"byteOffset":177584,
			"target":34962
		},
		{
			"buffer":0,
			"byteLength":13812,
			"byteOffset":191396,
			"target":34962
		},
		{
			"buffer":0,
			"byteLength":9208,
			"byteOffset":205208,
			"target":34962
		},
		{
			"buffer":0,
			"byteLength":8424,
			"byteOffset":214416,
			"target":34963
		},
		{
			"buffer":0,
			"byteLength":7872,
			"byteOffset":222840,
			"target":34962
		},
		{
			"buffer":0,
			"byteLength":7872,
			"byteOffset":230712,
			"target":34962
		},
		{
			"buffer":0,
			"byteLength":5248,
			"byteOffset":238584,
			"target":34962
		},
		{
			"buffer":0,
			"byteLength":5248,
			"byteOffset":243832,
			"target":34962
		},
		{
			"buffer":0,
			"byteLength":4296,
			"byteOffset":249080,
			"target":34963
		},
		{
			"buffer":0,
			"byteLength":12,
			"byteOffset":253376
		},
		{
			"buffer":0,
			"byteLength":108,
			"byteOffset":253388
		}
	],
	"samplers":[
		{
			"magFilter":9729,
			"minFilter":9987
		}
	],
	"buffers":[
		{
			"byteLength":253496,
			"uri":"furniture4.bin"
		}
	]
}
