{
	"asset":{
		"generator":"Khronos glTF Blender I/O v4.0.44",
		"version":"2.0"
	},
	"extensionsUsed":[
		"KHR_lights_punctual"
	],
	"extensionsRequired":[
		"KHR_lights_punctual"
	],
	"extensions":{
		"KHR_lights_punctual":{
			"lights":[
				{
					"color":[
						1,
						1,
						1
					],
					"intensity":683,
					"type":"directional",
					"name":"Sun"
				}
			]
		}
	},
	"scene":0,
	"scenes":[
		{
			"name":"Scene",
			"nodes":[
				0,
				6
			]
		}
	],
	"nodes":[
		{
			"extensions":{
				"KHR_lights_punctual":{
					"light":0
				}
			},
			"name":"Sun",
			"rotation":[
				-0.5030659437179565,
				0.0884639099240303,
				-0.2944515347480774,
				0.8077111840248108
			]
		},
		{
			"mesh":0,
			"name":"Cube"
		},
		{
			"mesh":1,
			"name":"Cube.001"
		},
		{
			"mesh":2,
			"name":"Cube.002"
		},
		{
			"mesh":3,
			"name":"Cube.004",
			"translation":[
				0,
				0,
				-0.17306342720985413
			]
		},
		{
			"mesh":4,
			"name":"Cube.007"
		},
		{
			"children":[
				1,
				2,
				3,
				4,
				5
			],
			"name":"Bedroom nightstands",
			"translation":[
				-0.13677978515625,
				0,
				0.6169037818908691
			]
		}
	],
	"animations":[
		{
			"channels":[
				{
					"sampler":0,
					"target":{
						"node":4,
						"path":"translation"
					}
				}
			],
			"name":"Cube.004Action",
			"samplers":[
				{
					"input":25,
					"interpolation":"LINEAR",
					"output":26
				}
			]
		}
	],
	"materials":[
		{
			"doubleSided":true,
			"name":"Leather",
			"normalTexture":{
				"index":0,
				"texCoord":1
			},
			"pbrMetallicRoughness":{
				"baseColorTexture":{
					"index":1,
					"texCoord":1
				},
				"metallicFactor":0,
				"metallicRoughnessTexture":{
					"index":2,
					"texCoord":1
				}
			}
		},
		{
			"doubleSided":true,
			"name":"Wood.003",
			"normalTexture":{
				"index":3,
				"texCoord":1
			},
			"pbrMetallicRoughness":{
				"baseColorTexture":{
					"index":4,
					"texCoord":1
				},
				"metallicRoughnessTexture":{
					"index":5,
					"texCoord":1
				}
			}
		},
		{
			"doubleSided":true,
			"name":"Glass - Optimized.001",
			"pbrMetallicRoughness":{}
		}
	],
	"meshes":[
		{
			"name":"Cube.020",
			"primitives":[
				{
					"attributes":{
						"POSITION":0,
						"NORMAL":1,
						"TEXCOORD_0":2,
						"TEXCOORD_1":3
					},
					"indices":4,
					"material":0
				}
			]
		},
		{
			"name":"Cube.019",
			"primitives":[
				{
					"attributes":{
						"POSITION":5,
						"NORMAL":6,
						"TEXCOORD_0":7,
						"TEXCOORD_1":8
					},
					"indices":9,
					"material":1
				}
			]
		},
		{
			"name":"Cube.018",
			"primitives":[
				{
					"attributes":{
						"POSITION":10,
						"NORMAL":11,
						"TEXCOORD_0":12,
						"TEXCOORD_1":13
					},
					"indices":14,
					"material":1
				}
			]
		},
		{
			"name":"Cube.013",
			"primitives":[
				{
					"attributes":{
						"POSITION":15,
						"NORMAL":16,
						"TEXCOORD_0":17,
						"TEXCOORD_1":18
					},
					"indices":19,
					"material":1
				}
			]
		},
		{
			"name":"Cube.009",
			"primitives":[
				{
					"attributes":{
						"POSITION":20,
						"NORMAL":21,
						"TEXCOORD_0":22,
						"TEXCOORD_1":23
					},
					"indices":24,
					"material":2
				}
			]
		}
	],
	"textures":[
		{
			"sampler":0,
			"source":0
		},
		{
			"sampler":0,
			"source":1
		},
		{
			"sampler":0,
			"source":2
		},
		{
			"sampler":0,
			"source":3
		},
		{
			"sampler":0,
			"source":4
		},
		{
			"sampler":0,
			"source":5
		}
	],
	"images":[
		{
			"mimeType":"image/jpeg",
			"name":"Leather032_2K_Normal",
			"uri":"Leather032_2K_Normal.jpg"
		},
		{
			"mimeType":"image/jpeg",
			"name":"Leather032_2K_Color",
			"uri":"Leather032_2K_Color.jpg"
		},
		{
			"mimeType":"image/png",
			"name":"Leather032_2K_Roughness",
			"uri":"Leather032_2K_Roughness.png"
		},
		{
			"mimeType":"image/jpeg",
			"name":"woodcreator_1_normal",
			"uri":"woodcreator_1_normal.jpg"
		},
		{
			"mimeType":"image/jpeg",
			"name":"woodcreator_1_basecolor",
			"uri":"woodcreator_1_basecolor.jpg"
		},
		{
			"mimeType":"image/png",
			"name":"woodcreator_1_metallic-woodcreator_1_roughness",
			"uri":"woodcreator_1_metallic-woodcreator_1_roughness.png"
		}
	],
	"accessors":[
		{
			"bufferView":0,
			"componentType":5126,
			"count":2843,
			"max":[
				0.2750193178653717,
				0.43999993801116943,
				0.1849999725818634
			],
			"min":[
				-0.2749805152416229,
				0,
				-0.1849999874830246
			],
			"type":"VEC3"
		},
		{
			"bufferView":1,
			"componentType":5126,
			"count":2843,
			"type":"VEC3"
		},
		{
			"bufferView":2,
			"componentType":5126,
			"count":2843,
			"type":"VEC2"
		},
		{
			"bufferView":3,
			"componentType":5126,
			"count":2843,
			"type":"VEC2"
		},
		{
			"bufferView":4,
			"componentType":5123,
			"count":9852,
			"type":"SCALAR"
		},
		{
			"bufferView":5,
			"componentType":5126,
			"count":252,
			"max":[
				0.2750193178653717,
				0.20999997854232788,
				0.10500001162290573
			],
			"min":[
				-0.2749805152416229,
				0.09999996423721313,
				-0.1849999725818634
			],
			"type":"VEC3"
		},
		{
			"bufferView":6,
			"componentType":5126,
			"count":252,
			"type":"VEC3"
		},
		{
			"bufferView":7,
			"componentType":5126,
			"count":252,
			"type":"VEC2"
		},
		{
			"bufferView":8,
			"componentType":5126,
			"count":252,
			"type":"VEC2"
		},
		{
			"bufferView":9,
			"componentType":5123,
			"count":714,
			"type":"SCALAR"
		},
		{
			"bufferView":10,
			"componentType":5126,
			"count":684,
			"max":[
				0.27501949667930603,
				0.2199999839067459,
				0.14499998092651367
			],
			"min":[
				-0.2749805748462677,
				0.20999997854232788,
				-0.1849999725818634
			],
			"type":"VEC3"
		},
		{
			"bufferView":11,
			"componentType":5126,
			"count":684,
			"type":"VEC3"
		},
		{
			"bufferView":12,
			"componentType":5126,
			"count":684,
			"type":"VEC2"
		},
		{
			"bufferView":13,
			"componentType":5126,
			"count":684,
			"type":"VEC2"
		},
		{
			"bufferView":14,
			"componentType":5123,
			"count":2526,
			"type":"SCALAR"
		},
		{
			"bufferView":15,
			"componentType":5126,
			"count":1183,
			"max":[
				0.25501933693885803,
				0.20999997854232788,
				0.3150469660758972
			],
			"min":[
				-0.2549804747104645,
				0.0899999737739563,
				-0.0049529969692230225
			],
			"type":"VEC3"
		},
		{
			"bufferView":16,
			"componentType":5126,
			"count":1183,
			"type":"VEC3"
		},
		{
			"bufferView":17,
			"componentType":5126,
			"count":1183,
			"type":"VEC2"
		},
		{
			"bufferView":18,
			"componentType":5126,
			"count":1183,
			"type":"VEC2"
		},
		{
			"bufferView":19,
			"componentType":5123,
			"count":4212,
			"type":"SCALAR"
		},
		{
			"bufferView":20,
			"componentType":5126,
			"count":656,
			"max":[
				0.2550193965435028,
				0.3924999535083771,
				0.14249999821186066
			],
			"min":[
				-0.25498053431510925,
				0.38249996304512024,
				-0.1650000363588333
			],
			"type":"VEC3"
		},
		{
			"bufferView":21,
			"componentType":5126,
			"count":656,
			"type":"VEC3"
		},
		{
			"bufferView":22,
			"componentType":5126,
			"count":656,
			"type":"VEC2"
		},
		{
			"bufferView":23,
			"componentType":5126,
			"count":656,
			"type":"VEC2"
		},
		{
			"bufferView":24,
			"componentType":5123,
			"count":2148,
			"type":"SCALAR"
		},
		{
			"bufferView":25,
			"componentType":5126,
			"count":40,
			"max":[
				1.625
			],
			"min":[
				0
			],
			"type":"SCALAR"
		},
		{
			"bufferView":26,
			"componentType":5126,
			"count":40,
			"type":"VEC3"
		}
	],
	"bufferViews":[
		{
			"buffer":0,
			"byteLength":34116,
			"byteOffset":0,
			"target":34962
		},
		{
			"buffer":0,
			"byteLength":34116,
			"byteOffset":34116,
			"target":34962
		},
		{
			"buffer":0,
			"byteLength":22744,
			"byteOffset":68232,
			"target":34962
		},
		{
			"buffer":0,
			"byteLength":22744,
			"byteOffset":90976,
			"target":34962
		},
		{
			"buffer":0,
			"byteLength":19704,
			"byteOffset":113720,
			"target":34963
		},
		{
			"buffer":0,
			"byteLength":3024,
			"byteOffset":133424,
			"target":34962
		},
		{
			"buffer":0,
			"byteLength":3024,
			"byteOffset":136448,
			"target":34962
		},
		{
			"buffer":0,
			"byteLength":2016,
			"byteOffset":139472,
			"target":34962
		},
		{
			"buffer":0,
			"byteLength":2016,
			"byteOffset":141488,
			"target":34962
		},
		{
			"buffer":0,
			"byteLength":1428,
			"byteOffset":143504,
			"target":34963
		},
		{
			"buffer":0,
			"byteLength":8208,
			"byteOffset":144932,
			"target":34962
		},
		{
			"buffer":0,
			"byteLength":8208,
			"byteOffset":153140,
			"target":34962
		},
		{
			"buffer":0,
			"byteLength":5472,
			"byteOffset":161348,
			"target":34962
		},
		{
			"buffer":0,
			"byteLength":5472,
			"byteOffset":166820,
			"target":34962
		},
		{
			"buffer":0,
			"byteLength":5052,
			"byteOffset":172292,
			"target":34963
		},
		{
			"buffer":0,
			"byteLength":14196,
			"byteOffset":177344,
			"target":34962
		},
		{
			"buffer":0,
			"byteLength":14196,
			"byteOffset":191540,
			"target":34962
		},
		{
			"buffer":0,
			"byteLength":9464,
			"byteOffset":205736,
			"target":34962
		},
		{
			"buffer":0,
			"byteLength":9464,
			"byteOffset":215200,
			"target":34962
		},
		{
			"buffer":0,
			"byteLength":8424,
			"byteOffset":224664,
			"target":34963
		},
		{
			"buffer":0,
			"byteLength":7872,
			"byteOffset":233088,
			"target":34962
		},
		{
			"buffer":0,
			"byteLength":7872,
			"byteOffset":240960,
			"target":34962
		},
		{
			"buffer":0,
			"byteLength":5248,
			"byteOffset":248832,
			"target":34962
		},
		{
			"buffer":0,
			"byteLength":5248,
			"byteOffset":254080,
			"target":34962
		},
		{
			"buffer":0,
			"byteLength":4296,
			"byteOffset":259328,
			"target":34963
		},
		{
			"buffer":0,
			"byteLength":160,
			"byteOffset":263624
		},
		{
			"buffer":0,
			"byteLength":480,
			"byteOffset":263784
		}
	],
	"samplers":[
		{
			"magFilter":9729,
			"minFilter":9987
		}
	],
	"buffers":[
		{
			"byteLength":264264,
			"uri":"furniture9.bin"
		}
	]
}
