{
	"asset":{
		"generator":"Khronos glTF Blender I/O v4.0.44",
		"version":"2.0"
	},
	"extensionsUsed":[
		"KHR_lights_punctual"
	],
	"extensionsRequired":[
		"KHR_lights_punctual"
	],
	"extensions":{
		"KHR_lights_punctual":{
			"lights":[
				{
					"color":[
						1,
						1,
						1
					],
					"intensity":4,
					"type":"directional",
					"name":"Sun"
				},
				{
					"color":[
						1,
						1,
						1
					],
					"intensity":1,
					"type":"directional",
					"name":"Sun.001"
				},
				{
					"color":[
						1,
						1,
						1
					],
					"intensity":1,
					"type":"directional",
					"name":"Sun.002"
				}
			]
		}
	},
	"scene":0,
	"scenes":[
		{
			"name":"Scene",
			"nodes":[
				0,
				1,
				2,
				3
			]
		}
	],
	"nodes":[
		{
			"mesh":0,
			"name":"Cube"
		},
		{
			"extensions":{
				"KHR_lights_punctual":{
					"light":0
				}
			},
			"name":"Sun",
			"rotation":[
				-0.8710969686508179,
				0,
				0,
				0.49111106991767883
			],
			"translation":[
				0,
				2.799704074859619,
				-2.0250136852264404
			]
		},
		{
			"extensions":{
				"KHR_lights_punctual":{
					"light":1
				}
			},
			"name":"Sun.001",
			"rotation":[
				0.5063477158546448,
				-0.12959741055965424,
				-0.21138857305049896,
				0.8259124755859375
			],
			"translation":[
				0.7736518979072571,
				0.021366119384765625,
				1.1010773181915283
			]
		},
		{
			"extensions":{
				"KHR_lights_punctual":{
					"light":2
				}
			},
			"name":"Sun.002",
			"rotation":[
				0.48775190114974976,
				0.18783392012119293,
				0.30637913942337036,
				0.7955805063247681
			],
			"translation":[
				3.133380651473999,
				-0.12432435154914856,
				0.7157491445541382
			]
		}
	],
	"materials":[
		{
			"doubleSided":true,
			"name":"Brown Leather 1",
			"normalTexture":{
				"index":0,
				"texCoord":1
			},
			"pbrMetallicRoughness":{
				"baseColorTexture":{
					"index":1,
					"texCoord":1
				},
				"metallicFactor":0,
				"metallicRoughnessTexture":{
					"index":2,
					"texCoord":1
				}
			}
		}
	],
	"meshes":[
		{
			"name":"Cube",
			"primitives":[
				{
					"attributes":{
						"POSITION":0,
						"NORMAL":1,
						"TEXCOORD_0":2,
						"TEXCOORD_1":3
					},
					"indices":4,
					"material":0
				}
			]
		}
	],
	"textures":[
		{
			"sampler":0,
			"source":0
		},
		{
			"sampler":0,
			"source":1
		},
		{
			"sampler":0,
			"source":2
		}
	],
	"images":[
		{
			"mimeType":"image/jpeg",
			"name":"Brown_Leather_01_Base_Normal",
			"uri":"Brown_Leather_01_Base_Normal.jpg"
		},
		{
			"mimeType":"image/jpeg",
			"name":"Brown_Leather_01_Base",
			"uri":"Brown_Leather_01_Base.jpg"
		},
		{
			"mimeType":"image/png",
			"name":"Brown_Leather_01_Roughness",
			"uri":"Brown_Leather_01_Roughness.png"
		}
	],
	"accessors":[
		{
			"bufferView":0,
			"componentType":5126,
			"count":1337,
			"max":[
				1,
				1,
				1
			],
			"min":[
				-1,
				-1,
				-1
			],
			"type":"VEC3"
		},
		{
			"bufferView":1,
			"componentType":5126,
			"count":1337,
			"type":"VEC3"
		},
		{
			"bufferView":2,
			"componentType":5126,
			"count":1337,
			"type":"VEC2"
		},
		{
			"bufferView":3,
			"componentType":5126,
			"count":1337,
			"type":"VEC2"
		},
		{
			"bufferView":4,
			"componentType":5123,
			"count":7056,
			"type":"SCALAR"
		}
	],
	"bufferViews":[
		{
			"buffer":0,
			"byteLength":16044,
			"byteOffset":0,
			"target":34962
		},
		{
			"buffer":0,
			"byteLength":16044,
			"byteOffset":16044,
			"target":34962
		},
		{
			"buffer":0,
			"byteLength":10696,
			"byteOffset":32088,
			"target":34962
		},
		{
			"buffer":0,
			"byteLength":10696,
			"byteOffset":42784,
			"target":34962
		},
		{
			"buffer":0,
			"byteLength":14112,
			"byteOffset":53480,
			"target":34963
		}
	],
	"samplers":[
		{
			"magFilter":9729,
			"minFilter":9987
		}
	],
	"buffers":[
		{
			"byteLength":67592,
			"uri":"leather29.bin"
		}
	]
}
