{
	"asset":{
		"generator":"Khronos glTF Blender I/O v4.0.44",
		"version":"2.0"
	},
	"scene":0,
	"scenes":[
		{
			"name":"Scene",
			"nodes":[
				1
			]
		}
	],
	"nodes":[
		{
			"mesh":0,
			"name":"Text",
			"scale":[
				0.4223049283027649,
				0.4223048686981201,
				0.4223048686981201
			],
			"translation":[
				0.033670902252197266,
				0.21109998226165771,
				-0.023415325209498405
			]
		},
		{
			"children":[
				0
			],
			"name":"pound.onlyglb.glb",
			"rotation":[
				0.70710688829422,
				0,
				0,
				0.7071066498756409
			],
			"scale":[
				6.895675182342529,
				6.895676136016846,
				6.895676136016846
			],
			"translation":[
				0,
				0,
				-1.4415704011917114
			]
		}
	],
	"materials":[
		{
			"doubleSided":true,
			"name":"Material.001",
			"pbrMetallicRoughness":{
				"metallicFactor":0,
				"roughnessFactor":0.5
			}
		},
		{
			"doubleSided":true,
			"name":"front",
			"pbrMetallicRoughness":{
				"baseColorFactor":[
					0.800000011920929,
					0.800000011920929,
					0.800000011920929,
					1
				],
				"metallicFactor":0,
				"roughnessFactor":0.5
			}
		}
	],
	"meshes":[
		{
			"name":"Mesh_0",
			"primitives":[
				{
					"attributes":{
						"POSITION":0,
						"NORMAL":1,
						"TEXCOORD_0":2
					},
					"indices":3,
					"material":0
				},
				{
					"attributes":{
						"POSITION":4,
						"NORMAL":5,
						"TEXCOORD_0":6
					},
					"indices":7,
					"material":1
				}
			]
		}
	],
	"accessors":[
		{
			"bufferView":0,
			"componentType":5126,
			"count":176,
			"max":[
				0.2918752133846283,
				0.17000000178813934,
				0.3490002155303955
			],
			"min":[
				-0.2911248505115509,
				-0.17000000178813934,
				-0.34899982810020447
			],
			"type":"VEC3"
		},
		{
			"bufferView":1,
			"componentType":5126,
			"count":176,
			"type":"VEC3"
		},
		{
			"bufferView":2,
			"componentType":5126,
			"count":176,
			"type":"VEC2"
		},
		{
			"bufferView":3,
			"componentType":5123,
			"count":312,
			"type":"SCALAR"
		},
		{
			"bufferView":4,
			"componentType":5126,
			"count":32,
			"max":[
				0.2918752133846283,
				-0.17000000178813934,
				0.3490002155303955
			],
			"min":[
				-0.2911248505115509,
				-0.17000000178813934,
				-0.34899982810020447
			],
			"type":"VEC3"
		},
		{
			"bufferView":5,
			"componentType":5126,
			"count":32,
			"type":"VEC3"
		},
		{
			"bufferView":6,
			"componentType":5126,
			"count":32,
			"type":"VEC2"
		},
		{
			"bufferView":7,
			"componentType":5123,
			"count":72,
			"type":"SCALAR"
		}
	],
	"bufferViews":[
		{
			"buffer":0,
			"byteLength":2112,
			"byteOffset":0,
			"target":34962
		},
		{
			"buffer":0,
			"byteLength":2112,
			"byteOffset":2112,
			"target":34962
		},
		{
			"buffer":0,
			"byteLength":1408,
			"byteOffset":4224,
			"target":34962
		},
		{
			"buffer":0,
			"byteLength":624,
			"byteOffset":5632,
			"target":34963
		},
		{
			"buffer":0,
			"byteLength":384,
			"byteOffset":6256,
			"target":34962
		},
		{
			"buffer":0,
			"byteLength":384,
			"byteOffset":6640,
			"target":34962
		},
		{
			"buffer":0,
			"byteLength":256,
			"byteOffset":7024,
			"target":34962
		},
		{
			"buffer":0,
			"byteLength":144,
			"byteOffset":7280,
			"target":34963
		}
	],
	"buffers":[
		{
			"byteLength":7424,
			"uri":"poundgltfnew.bin"
		}
	]
}
